<svg xmlns="http://www.w3.org/2000/svg" version="1.0" preserveAspectRatio="xMidYMid meet" viewBox="401 23.1 335.86 347.9">

<g transform="translate(0.000000,394.000000) scale(0.100000,-0.100000)" fill="#00f3f3" stroke="none">
<path d="M5780 3674 c-239 -18 -599 -45 -800 -59 -767 -56 -812 -60 -857 -83 -52 -27 -79 -61 -98 -125 -13 -44 -15 -201 -15 -1137 0 -1181 -2 -1144 56 -1249 30 -56 485 -647 548 -712 53 -56 113 -79 202 -79 35 0 249 11 476 25 227 14 564 34 748 45 184 11 443 27 575 35 132 8 292 17 355 20 285 15 363 51 389 177 8 37 11 425 9 1287 l-3 1233 -51 47 c-57 52 -747 537 -809 568 -56 28 -133 43 -218 42 -40 -1 -268 -16 -507 -35z m677 -197 c55 -29 372 -254 412 -293 14 -13 22 -26 19 -30 -6 -6 -150 -16 -698 -48 -146 -9 -525 -32 -842 -51 -635 -38 -643 -38 -720 17 -113 81 -318 251 -318 264 0 32 69 42 525 74 253 18 654 48 890 66 237 18 486 31 555 30 114 -2 130 -4 177 -29z m650 -591 c12 -14 24 -45 28 -68 3 -24 5 -509 3 -1078 -3 -970 -4 -1038 -21 -1063 -39 -59 20 -53 -1174 -122 -818 -48 -1119 -62 -1146 -54 -19 5 -47 23 -61 40 l-26 31 0 1074 0 1074 29 32 28 32 289 17 c159 10 570 34 914 54 344 20 717 42 830 50 249 16 278 15 307 -19z"/>
<path d="M6468 2526 c-153 -10 -181 -14 -205 -32 -28 -21 -54 -78 -46 -100 2 -7 30 -15 61 -18 31 -4 69 -9 84 -12 l28 -6 2 -459 c2 -252 1 -459 -2 -459 -3 0 -85 123 -184 273 -98 149 -248 378 -333 507 -85 129 -158 241 -162 249 -7 12 -46 12 -272 -3 -145 -10 -272 -22 -284 -26 -38 -15 -67 -57 -72 -104 l-6 -46 40 0 c22 0 61 -3 87 -6 l46 -7 -2 -666 -3 -666 -65 -17 c-72 -19 -100 -44 -100 -89 0 -35 -12 -34 279 -19 252 13 291 21 330 66 51 58 45 66 -70 91 -56 13 -104 24 -106 26 -2 2 -2 228 -1 501 l3 498 330 -517 c355 -557 406 -624 485 -646 57 -15 152 0 239 37 l61 27 2 745 3 746 69 16 c78 20 96 36 96 92 l0 38 -77 -1 c-43 -1 -158 -7 -255 -13z"/>
</g>
</svg>